<?xml version="1.0" standalone="no"?>
<!DOCTYPE svg PUBLIC "-//W3C//DTD SVG 20010904//EN"
 "http://www.w3.org/TR/2001/REC-SVG-20010904/DTD/svg10.dtd">
<svg version="1.0" xmlns="http://www.w3.org/2000/svg"
 width="960.000000pt" height="960.000000pt" viewBox="0 0 960.000000 960.000000"
 preserveAspectRatio="xMidYMid meet">
<metadata>
Created by potrace 1.11, written by Peter Selinger 2001-2013
</metadata>
<g transform="translate(0.000000,960.000000) scale(0.100000,-0.100000)"
fill="#000000" stroke="none">
<path d="M0 4806 l0 -4794 3288 -7 c1808 -4 3967 -4 4797 0 l1510 7 3 4794 2
4794 -4800 0 -4800 0 0 -4794z m2494 3184 c11 -81 13 -79 -134 -104 -96 -17
-142 -32 -221 -71 -219 -111 -386 -318 -450 -560 -28 -108 -31 -311 -6 -403
20 -72 115 -269 155 -322 35 -47 174 -180 188 -180 6 0 39 -18 74 -41 72 -47
208 -95 295 -104 l60 -7 0 462 0 463 -192 -5 c-130 -4 -195 -2 -202 5 -12 12
-15 95 -5 121 4 11 13 14 31 10 13 -4 131 -7 261 -8 l237 -1 3 -567 c1 -333
-2 -576 -7 -591 -12 -32 -42 -37 -144 -26 -243 27 -445 128 -631 314 -246 245
-331 578 -240 932 69 267 292 533 542 646 79 35 273 85 328 84 l52 0 6 -47z
m604 -660 c1 -388 4 -711 7 -717 3 -10 74 -13 309 -13 l305 0 -25 -92 c-14
-51 -47 -165 -74 -253 -27 -88 -72 -236 -100 -330 -28 -93 -71 -233 -95 -310
-24 -77 -55 -176 -69 -220 -70 -231 -149 -471 -161 -489 -7 -12 -25 -72 -40
-135 -30 -125 -28 -134 29 -125 17 2 706 5 1531 5 l1500 0 120 81 c66 45 109
78 95 74 -14 -4 -66 -12 -117 -17 -73 -8 -106 -7 -165 5 -76 16 -173 52 -198
74 -8 7 -31 22 -50 35 -97 63 -203 248 -220 385 -16 122 16 277 72 356 16 21
28 44 28 51 0 25 129 141 200 179 93 50 156 66 261 66 136 0 272 -42 368 -114
59 -44 132 -138 173 -224 37 -76 41 -91 48 -198 7 -89 5 -129 -6 -172 -19 -77
-75 -188 -119 -239 -20 -24 -35 -43 -32 -43 3 0 29 15 59 33 30 18 96 53 146
77 l90 45 4 580 3 580 119 3 c227 5 359 -24 463 -104 17 -13 36 -24 42 -24 19
0 122 -134 156 -205 82 -167 86 -345 10 -495 -14 -27 -25 -52 -25 -54 0 -3 12
-1 28 4 36 13 269 50 307 50 19 -1 -11 -14 -80 -35 -289 -90 -312 -100 -363
-147 -67 -62 -116 -92 -194 -118 -38 -13 -68 -26 -68 -30 0 -9 81 -185 118
-257 15 -28 24 -54 22 -56 -3 -3 -32 -8 -66 -12 l-61 -7 -30 59 c-17 32 -34
69 -38 83 -4 14 -13 31 -19 39 -6 7 -23 43 -37 80 -29 74 -31 75 -112 39 l-49
-22 6 -126 c4 -69 3 -131 -2 -138 -7 -10 -23 -11 -68 -5 l-59 8 -3 97 -3 96
-92 -51 c-116 -63 -434 -260 -455 -282 -2 -2 205 -3 460 -3 l463 0 120 48
c161 64 285 104 435 139 136 33 348 66 357 57 4 -3 -1 -6 -11 -6 -25 0 -381
-120 -517 -174 -64 -25 -121 -46 -128 -46 -6 0 -11 -4 -11 -10 0 -6 45 -10
115 -10 l115 0 0 -60 0 -60 -117 -2 c-65 -2 -179 -1 -253 0 l-135 4 -80 -42
c-170 -89 -357 -205 -337 -208 18 -3 21 -14 27 -125 4 -67 5 -170 4 -230 -3
-82 -1 -106 8 -103 7 3 54 33 104 67 122 82 378 227 467 264 l71 30 3 45 3 45
120 5 c99 5 142 12 245 42 121 36 292 71 395 82 48 5 49 5 15 -6 -194 -62
-344 -113 -437 -149 l-113 -44 0 -207 c0 -117 4 -208 9 -208 5 0 50 16 101 35
136 53 308 100 453 125 71 12 131 19 134 17 2 -3 -11 -8 -29 -12 -101 -23
-425 -142 -585 -216 l-83 -38 0 -191 0 -190 53 26 c172 88 438 175 632 209
130 22 133 18 15 -19 -219 -69 -449 -164 -632 -261 l-68 -36 0 -83 c0 -46 3
-124 6 -174 l7 -90 41 25 c89 57 344 173 460 212 117 38 311 82 359 81 12 -1
-25 -16 -83 -34 -58 -18 -143 -47 -189 -65 -237 -89 -584 -273 -595 -315 -9
-32 -7 -318 1 -314 5 2 60 38 124 80 223 149 493 265 720 309 55 10 105 19
112 18 7 0 -44 -20 -113 -43 -297 -103 -504 -205 -746 -369 l-91 -62 -7 -74
c-3 -41 -6 -127 -6 -193 0 -136 -22 -222 -69 -273 -16 -16 -38 -51 -50 -76
-35 -75 -174 -165 -304 -198 -64 -16 -267 -17 -296 -1 -13 6 -24 10 -25 8 -23
-34 -98 -172 -144 -264 -79 -157 -106 -221 -163 -389 -27 -77 -49 -135 -49
-128 -1 40 47 240 80 336 49 144 92 238 170 372 33 59 59 112 58 117 -2 6 -19
13 -38 15 -21 2 -43 13 -55 27 -11 13 -34 31 -52 40 -17 9 -34 24 -38 35 -3
11 -12 24 -19 30 -10 9 -24 -7 -64 -71 -124 -204 -228 -429 -313 -678 -42
-123 -49 -137 -44 -90 10 84 59 276 100 386 45 120 143 319 214 433 l52 84
-20 48 c-23 53 -38 139 -49 276 l-7 92 -90 -124 c-49 -69 -121 -175 -158 -236
l-69 -112 66 5 c64 6 66 5 66 -18 0 -12 -4 -25 -8 -28 -5 -3 -4 -39 1 -81 4
-42 6 -83 3 -91 -4 -11 -31 -14 -125 -14 l-119 0 -45 -102 c-52 -120 -117
-295 -153 -411 -22 -74 -24 -77 -19 -32 15 133 68 344 119 474 14 35 23 68 20
72 -8 13 -236 11 -273 -2 -24 -9 -35 -9 -44 0 -6 6 -20 11 -31 11 -18 0 -30
-23 -74 -143 -30 -78 -69 -192 -88 -252 -27 -87 -33 -100 -28 -60 13 119 67
353 99 438 7 16 3 17 -36 10 -71 -11 -207 -9 -220 4 -15 15 9 119 58 251 19
51 32 96 29 100 -3 5 24 100 60 212 35 112 64 206 64 209 -1 14 -137 -235
-201 -368 -102 -210 -255 -612 -292 -766 -4 -19 -5 -19 -6 1 -1 30 38 256 53
308 l13 43 -235 7 c-130 3 -239 3 -243 -1 -3 -5 -22 -58 -40 -120 -18 -62 -35
-111 -37 -108 -2 2 4 54 13 115 9 62 14 114 11 117 -2 3 -21 0 -41 -7 -28 -9
-39 -9 -51 1 -11 9 -41 10 -122 3 -150 -12 -239 -11 -253 3 -15 15 20 164 63
268 16 38 27 74 24 81 -2 6 18 82 45 168 27 87 49 163 49 169 -1 39 -216 -553
-265 -731 -10 -34 -19 -61 -21 -59 -2 2 6 66 17 143 53 362 176 729 369 1100
54 102 86 178 100 235 12 46 34 127 50 179 22 71 213 727 258 884 5 18 -4 19
-243 14 -267 -5 -283 -2 -271 47 3 12 9 61 12 109 6 71 9 84 20 75 10 -8 18
-8 27 -1 7 6 30 8 52 5 35 -5 88 -6 168 -3 12 0 43 -2 68 -6 29 -4 56 -1 70 7
17 9 24 9 27 0 5 -14 35 -14 49 0 8 8 17 8 31 0 27 -15 104 -14 137 1 21 9 31
9 46 0 23 -15 59 -16 59 -2 0 6 11 10 25 10 17 0 25 -5 25 -17 0 -10 -46 -175
-101 -368 -56 -192 -104 -361 -107 -375 -3 -16 18 4 63 60 110 138 256 299
417 462 145 146 151 154 152 194 1 33 4 40 14 32 8 -7 16 -7 27 2 8 7 22 9 31
6 11 -4 39 15 87 60 40 37 104 92 144 124 l72 58 -32 5 c-18 3 -707 4 -1532 3
-825 -2 -1506 -1 -1512 2 -17 6 -16 33 1 79 8 21 33 101 56 178 22 77 76 253
120 390 43 138 102 329 130 425 29 96 83 270 120 385 37 116 86 275 108 353
l40 144 -282 -6 c-155 -3 -287 -2 -293 2 -9 6 -11 143 -10 550 1 355 -1 542
-8 543 -5 1 -73 2 -150 3 l-140 1 -3 59 c-2 32 1 63 6 68 10 10 254 14 271 4
7 -5 15 -5 19 -1 4 4 6 76 4 161 -2 85 0 159 3 164 4 6 33 10 68 8 l62 -3 3
-705z m1504 646 c-3 -34 -9 -64 -14 -67 -6 -4 -139 -6 -297 -5 l-286 1 -3 44
c-7 93 -33 86 306 87 l298 1 -4 -61z m642 -28 c22 -124 118 -746 142 -918 l8
-55 7 45 c4 25 14 99 23 165 9 66 39 262 66 435 27 173 52 339 56 368 l7 53
65 -3 65 -3 52 -360 c100 -688 99 -681 107 -649 7 25 91 551 144 902 l17 112
67 0 67 0 -13 -87 c-53 -340 -128 -853 -144 -978 -11 -82 -25 -168 -31 -190
-6 -22 -17 -89 -24 -149 -8 -69 -17 -111 -26 -117 -8 -5 -39 -8 -69 -7 l-54 3
-37 250 c-20 138 -53 363 -73 500 -21 138 -40 261 -44 274 -5 15 -22 -73 -49
-260 -60 -406 -115 -753 -120 -759 -2 -3 -32 -5 -66 -5 l-62 0 -6 70 c-4 39
-12 88 -18 110 -6 22 -25 132 -41 245 -16 113 -59 402 -95 643 -36 241 -65
442 -65 447 0 6 29 10 64 10 l64 0 16 -92z m1413 -455 l181 -548 1 548 1 547
65 0 65 0 3 -427 c2 -366 -2 -1097 -7 -1098 0 0 -31 1 -67 3 l-65 4 -21 66
c-12 37 -36 110 -53 162 -18 52 -51 156 -74 230 -24 74 -59 181 -80 236 -20
56 -36 109 -36 118 0 9 -7 31 -17 49 -9 18 -24 64 -34 103 -10 39 -24 86 -33
105 -14 31 -15 -11 -15 -511 1 -300 1 -551 0 -557 -1 -14 -53 -16 -106 -4
l-30 6 0 758 0 757 70 0 70 0 182 -547z m655 78 c3 -469 3 -469 26 -500 12
-17 22 -35 22 -41 0 -5 6 -10 13 -10 8 0 22 -9 31 -19 39 -43 146 -35 206 15
67 57 65 41 68 557 l3 467 63 0 63 0 7 -438 c4 -287 3 -457 -4 -492 -6 -30
-25 -78 -42 -107 -35 -58 -132 -143 -163 -143 -47 -1 -49 -8 -42 -172 4 -84 3
-159 -1 -166 -7 -10 -24 -11 -72 -5 l-64 8 0 165 -1 164 -31 7 c-70 14 -150
86 -186 165 -32 74 -37 173 -31 602 l6 412 63 0 63 0 3 -469z m-2897 124 c202
-36 370 -176 452 -378 36 -88 45 -241 21 -344 -42 -176 -156 -318 -323 -399
-82 -40 -106 -46 -196 -56 -83 -8 -116 -7 -178 6 -91 19 -178 53 -211 84 -13
12 -29 22 -36 22 -19 0 -115 111 -157 182 -83 140 -104 307 -58 463 14 44 29
86 35 94 14 18 32 49 49 86 23 49 144 151 232 195 117 59 222 71 370 45z
m-102 -1463 c115 -57 177 -155 180 -284 1 -40 1 -319 0 -620 l-3 -548 -62 4
-63 3 0 144 c0 79 -1 150 -3 157 -1 9 -46 12 -183 12 l-181 0 7 -155 c9 -178
12 -172 -80 -160 l-55 6 1 609 c0 335 4 612 8 615 5 2 11 22 15 43 3 22 13 45
21 52 8 7 15 18 15 24 0 24 67 76 135 105 92 40 156 38 248 -7z m411 16 c15
-68 31 -169 85 -523 33 -214 63 -412 67 -440 l8 -50 7 45 c4 25 12 83 19 130
6 47 33 229 60 405 28 176 53 338 56 360 14 102 9 96 77 93 l62 -3 13 -95 c16
-120 119 -820 130 -880 8 -46 19 20 135 770 l32 205 63 3 c56 3 62 1 62 -17 0
-11 -29 -215 -65 -453 -36 -238 -75 -500 -86 -583 -10 -82 -24 -163 -30 -180
-5 -16 -14 -74 -19 -129 -6 -54 -15 -105 -21 -112 -15 -18 -118 -19 -124 -1
-2 6 -18 104 -34 217 -81 549 -112 757 -118 775 -4 12 -14 -36 -24 -115 -36
-265 -132 -865 -142 -877 -5 -8 -32 -13 -62 -13 -60 0 -65 6 -65 73 0 23 -5
58 -11 77 -5 19 -25 139 -44 265 -19 127 -61 412 -95 635 -33 223 -60 412 -60
421 0 13 12 16 60 18 55 1 60 0 64 -21z m1821 -49 l0 -64 -290 0 -290 0 -3 51
c-2 34 2 56 11 65 11 11 69 14 293 13 l279 0 0 -65z m-4006 -502 l26 -12 2
-145 c1 -80 1 -167 0 -195 -3 -92 -2 -329 2 -375 1 -25 -1 -62 -7 -83 -6 -24
-7 -76 -1 -150 6 -61 11 -362 13 -667 2 -305 7 -721 11 -925 11 -531 -7 -733
-86 -968 -34 -102 -109 -266 -166 -360 -112 -188 -323 -419 -488 -536 -100
-70 -309 -176 -425 -215 -171 -57 -341 -91 -372 -75 -10 6 -19 5 -23 -1 -9
-14 -91 -12 -102 3 -6 6 -13 53 -17 104 -5 81 -4 94 12 102 9 5 66 16 126 25
60 9 146 26 190 37 117 30 386 137 386 155 0 13 11 18 36 15 7 -1 14 8 17 19
3 11 13 20 24 20 10 0 24 9 31 21 8 12 19 18 28 15 9 -4 18 3 24 18 5 13 35
41 68 62 33 22 65 48 70 59 6 11 38 51 72 90 35 40 58 75 55 83 -3 8 11 30 34
51 25 23 58 74 91 141 73 147 97 214 136 380 55 227 61 388 42 1091 -22 778
-20 2215 2 2230 19 13 153 3 189 -14z m1107 -1438 c175 -53 280 -138 364 -294
73 -135 85 -216 70 -479 -5 -105 -10 -577 -10 -1050 l0 -859 -91 8 c-64 5 -94
3 -104 -5 -27 -23 -38 34 -31 165 4 66 9 175 12 242 5 90 3 127 -6 137 -6 9
-9 20 -5 26 4 7 -95 9 -327 8 l-333 -3 0 -80 c0 -44 4 -168 8 -276 7 -163 6
-199 -6 -210 -11 -12 -32 -13 -98 -8 -46 4 -96 8 -111 8 l-28 1 0 99 c0 59 4
102 10 106 8 5 8 11 1 19 -15 18 -14 1395 0 1413 8 9 8 17 1 26 -17 21 -14
534 3 561 7 12 18 47 24 80 7 40 20 68 41 92 16 19 30 40 30 46 0 23 52 86 98
119 26 19 99 55 162 81 137 56 212 62 326 27z"/>
<path d="M7108 6134 c-5 -4 -8 -210 -8 -458 l0 -451 82 6 c62 5 115 18 213 52
119 43 134 51 177 97 139 149 156 392 39 556 -20 28 -58 70 -85 93 -48 42
-106 77 -106 65 0 -4 -8 0 -17 8 -10 9 -36 19 -58 22 -66 12 -229 18 -237 10z"/>
<path d="M6210 5871 c0 -5 5 -13 10 -16 6 -3 10 -2 10 4 0 5 -4 13 -10 16 -5
3 -10 2 -10 -4z"/>
<path d="M6335 5870 c3 -5 8 -10 11 -10 2 0 4 5 4 10 0 6 -5 10 -11 10 -5 0
-7 -4 -4 -10z"/>
<path d="M6161 5805 c-59 -17 -131 -51 -185 -88 -49 -32 -93 -90 -129 -167
-57 -119 -48 -289 20 -410 36 -64 131 -158 182 -181 233 -103 455 -40 594 172
89 133 87 325 -3 472 -44 72 -171 177 -214 177 -6 0 -24 7 -41 16 -42 23 -158
27 -224 9z"/>
<path d="M6645 5670 c-3 -5 -2 -10 4 -10 5 0 13 5 16 10 3 6 2 10 -4 10 -5 0
-13 -4 -16 -10z"/>
<path d="M5735 5499 c7 -11 35 -12 35 -1 0 4 -9 8 -20 9 -11 1 -18 -2 -15 -8z"/>
<path d="M3306 5441 c-4 -7 -5 -15 -2 -18 9 -9 19 4 14 18 -4 11 -6 11 -12 0z"/>
<path d="M7026 5192 c-2 -4 -1 -14 5 -22 7 -12 9 -10 9 8 0 23 -5 28 -14 14z"/>
<path d="M7100 5089 c0 -5 5 -7 10 -4 6 3 10 8 10 11 0 2 -4 4 -10 4 -5 0 -10
-5 -10 -11z"/>
<path d="M6963 5045 c0 -27 2 -38 4 -22 2 15 2 37 0 50 -2 12 -4 0 -4 -28z"/>
<path d="M6670 5061 c0 -5 5 -13 10 -16 6 -3 10 -2 10 4 0 5 -4 13 -10 16 -5
3 -10 2 -10 -4z"/>
<path d="M3090 4630 c0 -5 7 -10 15 -10 8 0 15 5 15 10 0 6 -7 10 -15 10 -8 0
-15 -4 -15 -10z"/>
<path d="M3180 4610 c-8 -5 -12 -11 -9 -14 2 -3 11 -1 19 4 8 5 12 11 9 14 -2
3 -11 1 -19 -4z"/>
<path d="M4290 4610 c-23 -7 -23 -8 -3 -9 12 -1 25 4 28 9 3 6 5 10 3 9 -2 -1
-14 -5 -28 -9z"/>
<path d="M5330 4576 c0 -2 7 -6 15 -10 8 -3 15 -1 15 4 0 6 -7 10 -15 10 -8 0
-15 -2 -15 -4z"/>
<path d="M6330 4523 l-95 -4 -100 -80 c-215 -174 -198 -157 -176 -169 26 -13
87 -13 114 1 16 9 22 9 25 0 2 -6 14 -11 27 -11 13 0 25 5 27 11 3 9 10 9 27
0 23 -13 89 -11 159 4 21 5 32 3 32 -4 0 -6 11 -11 25 -11 14 0 25 5 25 10 0
10 43 14 52 5 3 -3 -5 -42 -18 -87 -13 -45 -24 -86 -24 -91 0 -4 26 12 58 36
157 120 388 273 527 349 l70 38 -160 0 c-88 0 -236 2 -330 4 -93 2 -213 1
-265 -1z"/>
<path d="M6753 4283 c20 -2 54 -2 75 0 20 2 3 4 -38 4 -41 0 -58 -2 -37 -4z"/>
<path d="M7811 4254 c0 -11 3 -14 6 -6 3 7 2 16 -1 19 -3 4 -6 -2 -5 -13z"/>
<path d="M6574 4067 c-205 -156 -198 -148 -229 -257 -14 -52 -64 -219 -110
-370 -46 -151 -87 -287 -90 -302 -5 -19 33 14 147 129 84 85 210 204 281 265
l127 111 0 259 c0 142 -1 258 -2 258 -2 0 -57 -42 -124 -93z"/>
<path d="M6260 4100 c0 -5 5 -10 11 -10 5 0 7 5 4 10 -3 6 -8 10 -11 10 -2 0
-4 -4 -4 -10z"/>
<path d="M7545 4080 c-16 -9 -84 -46 -150 -81 -66 -35 -200 -117 -297 -182
l-177 -118 6 -232 c3 -128 6 -233 7 -233 0 -1 46 34 101 78 109 87 374 266
472 319 60 33 61 34 67 84 7 61 11 373 5 378 -2 2 -17 -4 -34 -13z"/>
<path d="M5713 4033 c-39 -4 -51 -14 -180 -146 -162 -167 -299 -325 -428 -492
-176 -230 -170 -219 -231 -441 -31 -109 -64 -235 -75 -279 -11 -44 -41 -143
-65 -220 -25 -77 -68 -224 -95 -327 -27 -103 -58 -214 -69 -245 -11 -32 -20
-61 -20 -65 0 -9 164 -11 208 -2 29 6 33 12 67 118 98 297 268 637 467 934
171 255 360 484 619 747 l196 200 32 106 c17 59 31 109 31 113 0 6 -383 5
-457 -1z"/>
<path d="M6820 3950 c0 -5 5 -10 10 -10 6 0 10 5 10 10 0 6 -4 10 -10 10 -5 0
-10 -4 -10 -10z"/>
<path d="M6800 3879 c0 -5 5 -7 10 -4 6 3 10 8 10 11 0 2 -4 4 -10 4 -5 0 -10
-5 -10 -11z"/>
<path d="M6749 3818 c-1 -5 -2 -21 -3 -38 -1 -25 3 -30 22 -30 23 0 30 14 11
25 -6 4 -14 17 -19 29 -5 11 -10 18 -11 14z"/>
<path d="M6790 3809 c0 -5 5 -7 10 -4 6 3 10 8 10 11 0 2 -4 4 -10 4 -5 0 -10
-5 -10 -11z"/>
<path d="M5896 3454 c-231 -248 -377 -431 -544 -681 -162 -242 -328 -555 -441
-830 l-49 -122 52 -6 c29 -4 123 -5 209 -3 153 3 157 2 157 -18 0 -11 -4 -24
-9 -30 -5 -5 -5 -29 -1 -54 3 -25 9 -38 12 -30 3 8 20 58 38 110 77 227 209
493 365 731 46 70 86 142 90 160 4 19 24 88 46 154 21 66 54 176 73 245 20 69
60 210 91 315 30 104 54 193 52 198 -1 5 -65 -57 -141 -139z"/>
<path d="M7515 3543 c-167 -98 -395 -262 -542 -389 l-53 -45 0 -142 c0 -78 3
-179 7 -224 l6 -83 86 83 c153 147 377 326 514 412 26 17 50 39 53 50 3 11 1
100 -3 197 l-8 176 -60 -35z"/>
<path d="M6610 3444 c-129 -115 -320 -306 -430 -429 -107 -121 -106 -117 -164
-352 -14 -56 -48 -171 -75 -255 -27 -84 -70 -233 -95 -330 -25 -97 -52 -193
-61 -214 -20 -50 -19 -54 14 -54 25 0 31 6 51 53 42 98 164 312 261 457 129
193 282 381 450 555 l138 143 0 251 c0 138 -1 251 -2 251 -1 0 -40 -34 -87
-76z"/>
<path d="M6774 3319 c-3 -6 -1 -16 6 -22 10 -9 12 -8 6 7 -5 14 -2 17 9 12 8
-3 15 -1 15 4 0 14 -27 13 -36 -1z"/>
<path d="M4825 3296 l-30 -13 27 -8 c31 -8 48 0 48 21 0 17 -6 17 -45 0z"/>
<path d="M6045 3296 l-30 -13 27 -8 c31 -8 48 0 48 21 0 17 -6 17 -45 0z"/>
<path d="M6855 3271 c-3 -5 -1 -12 5 -16 12 -7 30 2 30 16 0 12 -27 12 -35 0z"/>
<path d="M4785 3220 c-3 -5 -1 -10 4 -10 6 0 11 5 11 10 0 6 -2 10 -4 10 -3 0
-8 -4 -11 -10z"/>
<path d="M6765 3210 c-3 -5 -2 -10 4 -10 5 0 13 5 16 10 3 6 2 10 -4 10 -5 0
-13 -4 -16 -10z"/>
<path d="M7655 3180 c-3 -5 -1 -10 4 -10 6 0 11 5 11 10 0 6 -2 10 -4 10 -3 0
-8 -4 -11 -10z"/>
<path d="M7648 3100 c5 -36 27 -35 27 1 0 14 -7 25 -16 27 -12 2 -15 -4 -11
-28z"/>
<path d="M7700 3115 c0 -8 5 -15 10 -15 6 0 10 7 10 15 0 8 -4 15 -10 15 -5 0
-10 -7 -10 -15z"/>
<path d="M7470 3024 c-135 -99 -264 -207 -421 -354 l-125 -118 1 -221 c1 -122
4 -223 7 -226 2 -3 29 25 58 63 80 99 383 397 487 477 l90 70 7 125 c3 69 8
155 10 193 2 37 0 67 -3 67 -3 0 -53 -35 -111 -76z"/>
<path d="M7630 3050 c0 -5 5 -10 10 -10 6 0 10 5 10 10 0 6 -4 10 -10 10 -5 0
-10 -4 -10 -10z"/>
<path d="M6121 3034 c0 -11 3 -14 6 -6 3 7 2 16 -1 19 -3 4 -6 -2 -5 -13z"/>
<path d="M7720 2990 c0 -5 5 -10 10 -10 6 0 10 5 10 10 0 6 -4 10 -10 10 -5 0
-10 -4 -10 -10z"/>
<path d="M7630 2980 c0 -5 5 -10 10 -10 6 0 10 5 10 10 0 6 -4 10 -10 10 -5 0
-10 -4 -10 -10z"/>
<path d="M6596 2795 c-262 -284 -431 -514 -600 -816 -41 -74 -78 -142 -81
-150 -4 -12 25 -14 185 -16 l189 -2 57 97 c74 127 189 295 277 406 l71 89 4
244 c3 143 1 243 -5 243 -5 0 -48 -43 -97 -95z"/>
<path d="M6880 2670 c0 -5 5 -10 11 -10 5 0 7 5 4 10 -3 6 -8 10 -11 10 -2 0
-4 -4 -4 -10z"/>
<path d="M6804 2660 c-30 -12 -40 -30 -16 -30 10 0 27 9 37 20 19 21 13 24
-21 10z"/>
<path d="M7490 2573 c-198 -171 -530 -523 -530 -562 0 -30 76 -116 130 -149
30 -18 57 -31 61 -30 4 2 38 41 75 88 38 47 134 151 214 232 l145 148 -4 112
c-1 62 -6 138 -9 169 l-7 56 -75 -64z"/>
<path d="M7453 2082 c-66 -70 -149 -160 -184 -201 l-62 -74 70 5 c125 9 244
99 278 209 15 50 33 189 24 189 -2 0 -59 -58 -126 -128z"/>
<path d="M7695 2200 c-3 -5 -1 -10 4 -10 6 0 11 5 11 10 0 6 -2 10 -4 10 -3 0
-8 -4 -11 -10z"/>
<path d="M7726 2164 c-8 -21 -8 -24 3 -24 5 0 11 9 14 20 6 24 -8 27 -17 4z"/>
<path d="M6735 2160 c-3 -5 -1 -10 4 -10 6 0 11 5 11 10 0 6 -2 10 -4 10 -3 0
-8 -4 -11 -10z"/>
<path d="M7666 2141 c-3 -5 1 -14 8 -20 12 -10 13 -8 9 8 -6 23 -9 25 -17 12z"/>
<path d="M6750 2130 c0 -5 5 -10 11 -10 5 0 7 5 4 10 -3 6 -8 10 -11 10 -2 0
-4 -4 -4 -10z"/>
<path d="M7616 2125 c-11 -8 -15 -15 -9 -15 6 0 16 7 23 15 16 19 11 19 -14 0z"/>
<path d="M7622 2088 c-19 -19 -15 -48 7 -48 11 0 21 -5 23 -11 3 -9 10 -9 26
0 31 16 28 32 -5 29 -24 -3 -28 0 -26 20 3 24 -7 28 -25 10z"/>
<path d="M7660 2001 c0 -5 7 -11 15 -15 9 -3 15 0 15 9 0 8 -7 15 -15 15 -8 0
-15 -4 -15 -9z"/>
<path d="M7590 1990 c0 -5 5 -10 10 -10 6 0 10 5 10 10 0 6 -4 10 -10 10 -5 0
-10 -4 -10 -10z"/>
<path d="M7620 1980 c0 -5 5 -10 10 -10 6 0 10 5 10 10 0 6 -4 10 -10 10 -5 0
-10 -4 -10 -10z"/>
<path d="M4440 1875 c0 -8 2 -15 4 -15 2 0 6 7 10 15 3 8 1 15 -4 15 -6 0 -10
-7 -10 -15z"/>
<path d="M5660 1875 c0 -8 2 -15 4 -15 2 0 6 7 10 15 3 8 1 15 -4 15 -6 0 -10
-7 -10 -15z"/>
<path d="M4828 1823 c7 -3 16 -2 19 1 4 3 -2 6 -13 5 -11 0 -14 -3 -6 -6z"/>
<path d="M7040 1809 c0 -11 5 -17 10 -14 6 3 10 13 10 21 0 8 -4 14 -10 14 -5
0 -10 -9 -10 -21z"/>
<path d="M5848 1813 c7 -3 16 -2 19 1 4 3 -2 6 -13 5 -11 0 -14 -3 -6 -6z"/>
<path d="M7078 1775 c-13 -28 -19 -30 -37 -12 -10 10 -15 8 -27 -8 -8 -11 -12
-25 -10 -32 3 -7 -1 -10 -10 -6 -13 5 -16 1 -18 -29 -1 -8 15 -13 44 -14 25 0
39 1 33 3 -7 3 -13 15 -13 27 0 12 -5 27 -12 34 -9 9 -8 12 4 12 9 0 18 -10
21 -22 6 -21 7 -22 27 -3 13 12 17 22 11 28 -7 7 -7 17 0 29 5 10 7 18 4 18
-3 0 -11 -11 -17 -25z"/>
<path d="M7321 1786 c-12 -14 -5 -46 10 -46 5 0 9 9 9 20 0 14 7 20 23 20 18
0 19 2 7 10 -21 13 -36 12 -49 -4z"/>
<path d="M4493 1763 c-22 -8 -14 -21 12 -19 14 0 25 4 25 7 0 10 -23 17 -37
12z"/>
<path d="M5711 1756 c-10 -11 -7 -14 14 -12 14 0 24 5 22 10 -5 16 -23 17 -36
2z"/>
<path d="M7400 1750 c0 -19 3 -21 12 -12 9 9 9 15 0 24 -9 9 -12 7 -12 -12z"/>
<path d="M7154 1735 c-16 -24 -11 -51 7 -40 5 4 9 -2 9 -12 0 -14 4 -12 18 10
19 31 37 35 50 11 5 -9 12 -12 15 -8 3 5 -3 21 -14 34 -18 23 -20 24 -30 8 -5
-10 -19 -18 -29 -18 -23 0 -26 10 -8 28 7 7 9 12 5 12 -3 0 -14 -11 -23 -25z"/>
<path d="M7286 1744 c-9 -23 -7 -36 4 -29 6 4 13 -7 16 -24 4 -17 11 -31 16
-31 6 0 8 7 5 15 -9 22 13 29 28 9 14 -18 14 -18 15 4 0 16 -6 22 -20 22 -12
0 -25 10 -32 25 -13 29 -23 32 -32 9z"/>
<path d="M7110 1720 c0 -5 5 -10 11 -10 5 0 7 5 4 10 -3 6 -8 10 -11 10 -2 0
-4 -4 -4 -10z"/>
<path d="M4435 1690 c-3 -5 -1 -10 4 -10 6 0 11 5 11 10 0 6 -2 10 -4 10 -3 0
-8 -4 -11 -10z"/>
<path d="M5655 1690 c-3 -5 -1 -10 4 -10 6 0 11 5 11 10 0 6 -2 10 -4 10 -3 0
-8 -4 -11 -10z"/>
<path d="M7202 1670 c0 -14 2 -19 5 -12 2 6 2 18 0 25 -3 6 -5 1 -5 -13z"/>
<path d="M6208 1573 c6 -2 18 -2 25 0 6 3 1 5 -13 5 -14 0 -19 -2 -12 -5z"/>
<path d="M4470 7968 c0 -9 5 -20 10 -23 13 -8 13 5 0 25 -8 13 -10 13 -10 -2z"/>
<path d="M4500 7973 c0 -2 6 -10 13 -17 10 -10 15 -10 24 -1 9 10 6 14 -13 18
-13 2 -24 2 -24 0z"/>
<path d="M4420 7962 c0 -5 7 -13 16 -16 10 -4 14 -1 12 6 -5 15 -28 23 -28 10z"/>
<path d="M6870 7771 c0 -5 5 -13 10 -16 6 -3 10 -2 10 4 0 5 -4 13 -10 16 -5
3 -10 2 -10 -4z"/>
<path d="M6620 7410 c0 -5 5 -10 11 -10 5 0 7 5 4 10 -3 6 -8 10 -11 10 -2 0
-4 -4 -4 -10z"/>
<path d="M6586 7373 c-6 -14 -5 -15 5 -6 7 7 10 15 7 18 -3 3 -9 -2 -12 -12z"/>
<path d="M6395 7290 c3 -5 8 -10 11 -10 2 0 4 5 4 10 0 6 -5 10 -11 10 -5 0
-7 -4 -4 -10z"/>
<path d="M6902 6963 c1 -10 -1 -23 -5 -30 -4 -6 -4 -20 1 -32 5 -15 11 -18 22
-11 12 8 12 10 -3 15 -15 6 -15 9 -2 28 19 28 19 47 -1 47 -9 0 -14 -7 -12
-17z"/>
<path d="M6866 6902 c-3 -6 -1 -14 5 -17 14 -9 20 -2 10 14 -6 8 -11 9 -15 3z"/>
<path d="M4290 7659 c0 -5 5 -7 10 -4 6 3 10 8 10 11 0 2 -4 4 -10 4 -5 0 -10
-5 -10 -11z"/>
<path d="M4385 7640 c-3 -5 -1 -10 4 -10 6 0 11 5 11 10 0 6 -2 10 -4 10 -3 0
-8 -4 -11 -10z"/>
<path d="M4256 7625 c4 -8 10 -12 15 -9 11 6 2 24 -11 24 -5 0 -7 -7 -4 -15z"/>
<path d="M4172 7555 c-89 -31 -187 -92 -226 -141 -115 -146 -138 -336 -59
-502 34 -72 142 -186 202 -213 166 -75 278 -75 430 0 107 52 208 182 235 301
40 173 -3 321 -127 441 -60 58 -84 73 -194 118 -72 29 -166 28 -261 -4z"/>
<path d="M4705 7430 c-3 -5 -2 -10 4 -10 5 0 13 5 16 10 3 6 2 10 -4 10 -5 0
-13 -4 -16 -10z"/>
<path d="M3775 7280 c-3 -6 1 -7 9 -4 18 7 21 14 7 14 -6 0 -13 -4 -16 -10z"/>
<path d="M3775 7250 c3 -5 10 -10 16 -10 5 0 9 5 9 10 0 6 -7 10 -16 10 -8 0
-12 -4 -9 -10z"/>
<path d="M4730 6801 c0 -5 5 -13 10 -16 6 -3 10 -2 10 4 0 5 -4 13 -10 16 -5
3 -10 2 -10 -4z"/>
<path d="M4104 6111 c-48 -22 -82 -61 -88 -105 -3 -17 -7 -198 -9 -403 l-5
-372 179 -3 c114 -2 179 1 180 7 6 93 -2 766 -9 785 -13 33 -69 86 -105 99
-42 16 -97 13 -143 -8z"/>
<path d="M4170 5169 c0 -5 5 -7 10 -4 6 3 10 8 10 11 0 2 -4 4 -10 4 -5 0 -10
-5 -10 -11z"/>
<path d="M4200 5172 c0 -4 7 -15 15 -26 13 -18 14 -18 12 3 -1 18 -27 41 -27
23z"/>
<path d="M4280 5159 c-13 -9 -13 -10 1 -6 9 3 23 0 30 -6 11 -10 11 -9 0 6 -7
9 -14 17 -15 17 0 0 -8 -5 -16 -11z"/>
<path d="M4251 5134 c0 -11 3 -14 6 -6 3 7 2 16 -1 19 -3 4 -6 -2 -5 -13z"/>
<path d="M3920 4841 c0 -25 6 -27 13 -6 4 8 2 17 -3 20 -6 4 -10 -3 -10 -14z"/>
<path d="M3956 4844 c-3 -8 -2 -13 3 -9 5 3 12 -1 14 -7 4 -8 6 -7 6 4 1 23
-15 32 -23 12z"/>
<path d="M6367 6188 c7 -38 13 -49 13 -24 0 9 5 14 10 11 6 -3 10 -2 10 3 0 6
-7 13 -16 16 -8 3 -12 10 -9 16 3 5 2 10 -4 10 -6 0 -8 -13 -4 -32z"/>
<path d="M6445 6190 c3 -5 15 -10 26 -10 11 0 17 5 14 10 -3 6 -15 10 -26 10
-11 0 -17 -4 -14 -10z"/>
<path d="M6420 6180 c0 -5 5 -10 11 -10 5 0 7 5 4 10 -3 6 -8 10 -11 10 -2 0
-4 -4 -4 -10z"/>
<path d="M2390 4905 c0 -8 5 -15 10 -15 6 0 10 7 10 15 0 8 -4 15 -10 15 -5 0
-10 -7 -10 -15z"/>
<path d="M2445 4838 c-8 -19 -17 -23 -48 -21 -27 2 -37 -2 -37 -12 0 -11 7
-14 24 -9 29 7 43 -11 19 -25 -16 -9 -16 -10 4 -11 12 0 24 -8 26 -17 3 -12 5
-9 6 8 0 14 4 29 7 32 6 6 16 77 11 77 -1 0 -7 -10 -12 -22z"/>
<path d="M2498 4843 c-28 -14 -36 -37 -18 -48 6 -3 10 3 10 14 0 12 6 21 14
21 14 0 32 18 25 24 -2 1 -16 -4 -31 -11z"/>
<path d="M2472 4740 c0 -14 2 -19 5 -12 2 6 2 18 0 25 -3 6 -5 1 -5 -13z"/>
<path d="M2408 4695 c-34 -29 -34 -32 -5 -30 12 1 23 9 25 18 4 20 13 22 30 5
6 -6 15 -9 19 -5 6 6 -25 36 -37 36 -3 0 -17 -11 -32 -24z"/>
<path d="M2431 4646 c-6 -7 -9 -21 -5 -30 4 -11 0 -16 -14 -16 -12 0 -24 -5
-28 -11 -4 -8 0 -9 15 -4 17 5 23 1 31 -21 14 -36 19 -28 25 39 5 57 -2 70
-24 43z"/>
<path d="M2390 4630 c0 -5 5 -10 11 -10 5 0 7 5 4 10 -3 6 -8 10 -11 10 -2 0
-4 -4 -4 -10z"/>
<path d="M3409 4016 c-86 -31 -155 -92 -191 -171 l-23 -50 -6 -700 c-4 -385
-3 -704 2 -709 5 -5 14 -4 22 2 11 9 22 9 46 1 24 -9 38 -9 54 0 16 8 54 9
137 3 63 -5 143 -6 178 -3 35 4 65 4 68 1 3 -3 39 -5 81 -5 l75 0 -2 175 c-1
96 -3 207 -3 245 -3 154 -1 727 2 835 3 91 0 127 -13 168 -24 71 -100 152
-178 191 -53 27 -72 31 -137 31 -42 -1 -92 -7 -112 -14z"/>
<path d="M3030 3289 c0 -5 5 -7 10 -4 6 3 10 8 10 11 0 2 -4 4 -10 4 -5 0 -10
-5 -10 -11z"/>
<path d="M3000 3259 c0 -11 5 -17 10 -14 6 3 10 13 10 21 0 8 -4 14 -10 14 -5
0 -10 -9 -10 -21z"/>
<path d="M3950 2695 c0 -8 5 -15 10 -15 6 0 10 7 10 15 0 8 -4 15 -10 15 -5 0
-10 -7 -10 -15z"/>
<path d="M3700 2320 c0 -5 7 -10 15 -10 13 0 14 -4 5 -21 -7 -11 -9 -24 -5
-27 3 -3 8 4 12 16 6 24 19 29 25 10 3 -7 10 -8 17 -4 9 6 5 13 -16 27 -31 21
-53 24 -53 9z"/>
<path d="M3495 2297 c-18 -18 -18 -19 -2 -14 13 5 17 2 15 -10 -2 -9 2 -18 7
-19 11 -4 18 53 7 59 -4 3 -16 -5 -27 -16z"/>
<path d="M3588 2313 c7 -3 16 -2 19 1 4 3 -2 6 -13 5 -11 0 -14 -3 -6 -6z"/>
<path d="M3545 2292 c-10 -10 -5 -30 10 -36 20 -7 45 3 45 19 0 13 -45 27 -55
17z"/>
<path d="M3637 2293 c-13 -12 -7 -23 13 -23 11 0 20 -5 20 -11 0 -6 -6 -9 -14
-6 -15 6 -26 -12 -26 -43 0 -13 5 -17 20 -13 15 4 18 9 10 18 -14 17 3 29 30
20 28 -9 25 9 -5 40 -27 26 -37 30 -48 18z"/>
<path d="M3810 2279 c0 -5 5 -7 10 -4 6 3 10 8 10 11 0 2 -4 4 -10 4 -5 0 -10
-5 -10 -11z"/>
<path d="M3470 2250 c0 -5 5 -10 11 -10 5 0 7 5 4 10 -3 6 -8 10 -11 10 -2 0
-4 -4 -4 -10z"/>
<path d="M3720 2251 c0 -5 7 -12 16 -15 13 -5 14 -9 4 -21 -7 -9 -8 -15 -2
-15 11 0 22 23 22 46 0 8 -9 14 -20 14 -11 0 -20 -4 -20 -9z"/>
<path d="M3588 2244 c-8 -8 3 -44 13 -44 5 0 9 11 9 25 0 24 -10 32 -22 19z"/>
<path d="M3036 1704 c-8 -21 -7 -26 4 -44 8 -13 11 -12 25 5 10 13 18 16 21 9
3 -7 14 -9 26 -6 17 4 19 2 13 -17 -4 -12 -2 -21 4 -21 14 0 14 77 0 85 -6 4
-13 -2 -16 -14 -7 -27 -19 -27 -26 -1 -6 24 -42 27 -51 4z m44 -4 c0 -5 -4
-10 -10 -10 -5 0 -10 5 -10 10 0 6 5 10 10 10 6 0 10 -4 10 -10z"/>
<path d="M3095 1620 c-3 -5 -1 -10 4 -10 6 0 11 5 11 10 0 6 -2 10 -4 10 -3 0
-8 -4 -11 -10z"/>
</g>
</svg>
